<?xml version="1.0" encoding="UTF-8"?>
<svg xmlns="http://www.w3.org/2000/svg" xmlns:xlink="http://www.w3.org/1999/xlink" width="12px" height="22px" viewBox="0 0 12 22" version="1.1">
<g id="surface1">
<path style=" stroke:none;fill-rule:nonzero;fill:rgb(94.901961%,69.019608%,23.529412%);fill-opacity:1;" d="M 0 0 C 3.960938 0 7.921875 0 12 0 C 12 7.261719 12 14.519531 12 22 C 8.039062 22 4.078125 22 0 22 C 0 14.738281 0 7.480469 0 0 Z M 2.769531 2.75 C 2.769531 8.042969 2.769531 13.335938 2.769531 18.792969 C 4.75 18.792969 6.730469 18.792969 8.769531 18.792969 C 8.769531 13.496094 8.769531 8.203125 8.769531 2.75 C 6.789062 2.75 4.808594 2.75 2.769531 2.75 Z M 2.769531 2.75 "/>
<path style=" stroke:none;fill-rule:nonzero;fill:rgb(91.372549%,80.784314%,56.078431%);fill-opacity:1;" d="M 6.921875 0 C 8.597656 0 10.273438 0 12 0 C 12 1.664062 12 3.328125 12 5.042969 C 11.085938 5.042969 10.171875 5.042969 9.230469 5.042969 C 9.230469 9.730469 9.230469 14.417969 9.230469 19.25 C 6.945312 19.25 4.660156 19.25 2.308594 19.25 C 2.308594 13.652344 2.308594 8.058594 2.308594 2.292969 C 3.832031 2.292969 5.355469 2.292969 6.921875 2.292969 C 6.921875 1.535156 6.921875 0.777344 6.921875 0 Z M 2.769531 2.75 C 2.769531 8.042969 2.769531 13.335938 2.769531 18.792969 C 4.75 18.792969 6.730469 18.792969 8.769531 18.792969 C 8.769531 13.496094 8.769531 8.203125 8.769531 2.75 C 6.789062 2.75 4.808594 2.75 2.769531 2.75 Z M 2.769531 2.75 "/>
<path style=" stroke:none;fill-rule:nonzero;fill:rgb(1.568627%,74.509804%,98.039216%);fill-opacity:1;" d="M 7.382812 0 C 8.90625 0 10.429688 0 12 0 C 12 1.664062 12 3.328125 12 5.042969 C 11.085938 5.042969 10.171875 5.042969 9.230469 5.042969 C 9.230469 4.285156 9.230469 3.527344 9.230469 2.75 C 8.621094 2.75 8.011719 2.75 7.382812 2.75 C 7.382812 1.84375 7.382812 0.933594 7.382812 0 Z M 7.382812 0 "/>
</g>
</svg>
