<?xml version="1.0" encoding="UTF-8"?>
<svg version="1.1" xmlns="http://www.w3.org/2000/svg" width="75" height="52">
<path d="M0 0 C24.75 0 49.5 0 75 0 C75 17.16 75 34.32 75 52 C50.25 52 25.5 52 0 52 C0 34.84 0 17.68 0 0 Z " fill="#4E97CF" transform="translate(0,0)"/>
<path d="M0 0 C24.75 0 49.5 0 75 0 C75 2.97 75 5.94 75 9 C74.41476563 8.82082031 73.82953125 8.64164063 73.2265625 8.45703125 C63.28274363 5.99347252 52.6458769 7.7847077 43 11 C43 10.34 43 9.68 43 9 C40.69 9.66 38.38 10.32 36 11 C37.32 11.33 38.64 11.66 40 12 C39.67 12.66 39.34 13.32 39 14 C36.35139573 14.59355614 33.70802678 14.74209269 31 15 C31 15.66 31 16.32 31 17 C30.34 17 29.68 17 29 17 C29.20625 17.61875 29.4125 18.2375 29.625 18.875 C29.74875 19.57625 29.8725 20.2775 30 21 C29.34 21.66 28.68 22.32 28 23 C27.83312552 25.58354218 27.83312552 25.58354218 28 28 C30.31 28.66 32.62 29.32 35 30 C35 30.66 35 31.32 35 32 C23.45 32 11.9 32 0 32 C0 21.44 0 10.88 0 0 Z " fill="#64ADE9" transform="translate(0,0)"/>
<path d="M0 0 C24.75 0 49.5 0 75 0 C75 3.3 75 6.6 75 10 C50.25 10 25.5 10 0 10 C0 6.7 0 3.4 0 0 Z " fill="#589CD2" transform="translate(0,42)"/>
<path d="M0 0 C24.75 0 49.5 0 75 0 C75 3.3 75 6.6 75 10 C50.25 10 25.5 10 0 10 C0 6.7 0 3.4 0 0 Z " fill="#596269" transform="translate(0,32)"/>
<path d="M0 0 C0.33 0.66 0.66 1.32 1 2 C2.97888961 2.72693904 4.97954558 3.39816251 7 4 C6.375 5.9375 6.375 5.9375 5 8 C1.9375 8.625 1.9375 8.625 -1 9 C-1.33 9.66 -1.66 10.32 -2 11 C-2 10.01 -2 9.02 -2 8 C-6.95 8 -11.9 8 -17 8 C-17 11.96 -17 15.92 -17 20 C-15.68 20 -14.36 20 -13 20 C-13.33 20.66 -13.66 21.32 -14 22 C-15.65 21.67 -17.3 21.34 -19 21 C-19 21.99 -19 22.98 -19 24 C-17.35 24.33 -15.7 24.66 -14 25 C-14.33 25.66 -14.66 26.32 -15 27 C-19.58137385 24.97567202 -22.61109984 22.67937732 -26 19 C-26.33 18.67 -26.66 18.34 -27 18 C-27.07205511 16.31391034 -27.08386068 14.62499341 -27.0625 12.9375 C-27.05347656 12.01839844 -27.04445313 11.09929688 -27.03515625 10.15234375 C-27.02355469 9.44207031 -27.01195313 8.73179688 -27 8 C-21.375 6.875 -21.375 6.875 -18 8 C-18 7.34 -18 6.68 -18 6 C-13.06410898 -0.50257315 -7.70473561 -0.75236116 0 0 Z " fill="#6DAED8" transform="translate(27,1)"/>
<path d="M0 0 C0 2.97 0 5.94 0 9 C-11.88 9 -23.76 9 -36 9 C-34.68 8.01 -33.36 7.02 -32 6 C-31.32066406 5.47019531 -30.64132813 4.94039062 -29.94140625 4.39453125 C-20.67431565 -1.76831225 -10.66632706 -0.53480191 0 0 Z " fill="#3E4347" transform="translate(75,33)"/>
<path d="M0 0 C1.66666667 0 3.33333333 0 5 0 C5 4.62 5 9.24 5 14 C-4.9 14 -14.8 14 -25 14 C-24.34 13.01 -23.68 12.02 -23 11 C-23 10.01 -23 9.02 -23 8 C-22.01 8 -21.02 8 -20 8 C-20 7.01 -20 6.02 -20 5 C-15.25 5.75 -15.25 5.75 -13 8 C-12.34 7.34 -11.68 6.68 -11 6 C-8 6 -8 6 -6.3125 7.5 C-5.879375 7.995 -5.44625 8.49 -5 9 C-4.67 8.01 -4.34 7.02 -4 6 C-1.9375 4.8125 -1.9375 4.8125 0 4 C0 2.68 0 1.36 0 0 Z " fill="#57A0D9" transform="translate(70,18)"/>
<path d="M0 0 C4.95 0 9.9 0 15 0 C15.09765625 8.49609375 15.09765625 8.49609375 15 11 C14 12 14 12 10.83984375 12.09765625 C8.90818359 12.08025391 8.90818359 12.08025391 6.9375 12.0625 C5.64714844 12.05347656 4.35679688 12.04445313 3.02734375 12.03515625 C2.02832031 12.02355469 1.02929688 12.01195312 0 12 C0 8.04 0 4.08 0 0 Z " fill="#F2C939" transform="translate(10,9)"/>
<path d="M0 0 C0.33 3.63 0.66 7.26 1 11 C2.32 11.33 3.64 11.66 5 12 C4.67 12.66 4.34 13.32 4 14 C2.35 13.67 0.7 13.34 -1 13 C-1 13.99 -1 14.98 -1 16 C0.65 16.33 2.3 16.66 4 17 C3.67 17.66 3.34 18.32 3 19 C-1.58137385 16.97567202 -4.61109984 14.67937732 -8 11 C-8.33 10.67 -8.66 10.34 -9 10 C-9.07205511 8.31391034 -9.08386068 6.62499341 -9.0625 4.9375 C-9.05347656 4.01839844 -9.04445313 3.09929688 -9.03515625 2.15234375 C-9.02355469 1.44207031 -9.01195312 0.73179688 -9 0 C-5.93109813 -1.53445094 -3.29905734 -0.54984289 0 0 Z " fill="#4F98D0" transform="translate(9,9)"/>
<path d="M0 0 C4.75 0.75 4.75 0.75 7 3 C7.66 2.34 8.32 1.68 9 1 C9.99 1 10.98 1 12 1 C12.33 2.32 12.66 3.64 13 5 C7.44141905 9.94096084 2.1846465 9.4185231 -5 9 C-4.34 8.01 -3.68 7.02 -3 6 C-3 5.01 -3 4.02 -3 3 C-2.01 3 -1.02 3 0 3 C0 2.01 0 1.02 0 0 Z " fill="#62ACE8" transform="translate(50,23)"/>
<path d="M0 0 C5.28 0 10.56 0 16 0 C15.34 1.98 14.68 3.96 14 6 C9.32798795 7.20568053 4.78503708 7.09382426 0 7 C0 4.69 0 2.38 0 0 Z " fill="#64AEEB" transform="translate(0,43)"/>
<path d="M0 0 C2.97 0 5.94 0 9 0 C9.125 6.75 9.125 6.75 8 9 C5.36 9 2.72 9 0 9 C0 6.03 0 3.06 0 0 Z " fill="#F3CA37" transform="translate(10,11)"/>
<path d="M0 0 C1.27230469 0.01804687 2.54460938 0.03609375 3.85546875 0.0546875 C5.31919922 0.08949219 5.31919922 0.08949219 6.8125 0.125 C6.00390625 2.0859375 6.00390625 2.0859375 4.8125 4.125 C1.75 4.75 1.75 4.75 -1.1875 5.125 C-1.5175 5.785 -1.8475 6.445 -2.1875 7.125 C-2.5175 6.135 -2.8475 5.145 -3.1875 4.125 C-6.69940809 2.89530122 -6.69940809 2.89530122 -10.1875 2.125 C-6.4507157 -0.36618953 -4.44298181 -0.0815226 0 0 Z " fill="#5098CF" transform="translate(27.1875,4.875)"/>
<path d="M0 0 C4.95 0 9.9 0 15 0 C12.05276949 1.96482034 9.88022174 2.7561217 6.5 3.6875 C5.5409375 3.95949219 4.581875 4.23148438 3.59375 4.51171875 C1 5 1 5 -2 4 C-1.34 2.68 -0.68 1.36 0 0 Z " fill="#63ACE9" transform="translate(19,43)"/>
<path d="M0 0 C2.97 0.495 2.97 0.495 6 1 C5.67 2.65 5.34 4.3 5 6 C0.38 6 -4.24 6 -9 6 C-9 5.67 -9 5.34 -9 5 C-6.36 5 -3.72 5 -1 5 C-0.67 3.35 -0.34 1.7 0 0 Z " fill="#D8BE52" transform="translate(19,15)"/>
<path d="M0 0 C6.625 0.625 6.625 0.625 10 4 C6.37 4 2.74 4 -1 4 C-0.67 2.68 -0.34 1.36 0 0 Z " fill="#4F97CF" transform="translate(15,28)"/>
<path d="M0 0 C7.41176471 0.70588235 7.41176471 0.70588235 10 2 C10 2.66 10 3.32 10 4 C7.69 4 5.38 4 3 4 C3 3.34 3 2.68 3 2 C1.68 1.67 0.36 1.34 -1 1 C-0.67 0.67 -0.34 0.34 0 0 Z " fill="#5FA9E5" transform="translate(33,17)"/>
<path d="M0 0 C0.33 1.32 0.66 2.64 1 4 C2.32 4 3.64 4 5 4 C4.67 4.66 4.34 5.32 4 6 C2.35 6 0.7 6 -1 6 C-1.33 4.68 -1.66 3.36 -2 2 C-1.34 2 -0.68 2 0 2 C0 1.34 0 0.68 0 0 Z " fill="#549DD5" transform="translate(31,15)"/>
<path d="M0 0 C0.99 0 1.98 0 3 0 C3 2.31 3 4.62 3 7 C2.01 7 1.02 7 0 7 C0 4.69 0 2.38 0 0 Z " fill="#FAD43B" transform="translate(16,11)"/>
</svg>
